<svg width="500" height="373" viewBox="0 0 500 373" fill="none" xmlns="http://www.w3.org/2000/svg">
<g clip-path="url(#clip0_9610_993)">
<rect width="500" height="373" fill="#0A0A0A"/>
<path d="M116 305C91.25 305 75 290.75 75 269C75 251.75 88.75 237.75 110 234L148.5 227C152.75 226.25 156 223 156 219C156 203.25 145.25 192 130 192C114 192 102 203.5 101 221L79 218.5C81.5 192.5 102.25 174 129 174C156.5 174 176 193.25 176 220V277L176.5 302H160.5L157 283C149.25 296.5 134.25 305 116 305ZM97 268C97 278.5 106 285.5 120 285.5C141 285.5 156 271 156 251V242.25C153.75 242.75 151 243.5 148 244L115 250C104 252 97 259 97 268ZM205.07 177H225.07V302H205.07V177ZM215.07 161C206.07 161 199.57 154.25 199.57 145C199.57 135.75 206.07 129 215.07 129C224.07 129 230.57 135.75 230.57 145C230.57 154.25 224.07 161 215.07 161Z" fill="white"/>
<path d="M225.567 149.631C224.454 150.68 223.086 151.417 221.464 151.84C219.842 152.264 217.574 152.503 214.659 152.555C211.744 152.608 210.133 152.671 209.825 152.746C207.801 152.714 206.031 152.051 204.515 150.758C203.031 149.326 202.167 147.567 201.924 145.479C201.564 143.581 201.839 141.758 202.751 140.009C203.663 138.26 204.935 136.994 206.567 136.209C207.129 135.976 207.511 135.738 207.712 135.494C207.861 135.165 208.226 134.996 208.809 134.985C209.392 134.975 209.795 134.959 210.018 134.938C210.272 134.779 210.702 134.805 211.306 135.017C211.942 135.092 212.397 135.16 212.673 135.224C212.896 135.203 213.336 135.341 213.993 135.638C214.597 135.85 214.994 136.014 215.185 136.131C215.461 136.194 215.901 136.332 216.505 136.544C217.109 136.756 217.507 136.921 217.697 137.037C218.566 137.673 221.344 138.532 226.029 139.614C226.961 139.974 227.836 140.902 228.652 142.396C229.468 143.891 229.706 145.216 229.367 146.372L225.567 149.631ZM262.831 207.001C260.806 208.856 258.622 209.513 256.28 208.972C253.248 207.329 251.277 205.967 250.365 204.885C249.56 203.974 247.928 201.928 245.469 198.748C242.957 195.483 240.365 192.09 237.695 188.571C234.971 184.967 233.354 182.852 232.846 182.226C231.245 180.043 229.735 177.626 228.315 174.975C228.209 171.976 229.826 169.845 233.165 168.584C234.585 168.404 236.695 169.326 239.493 171.351C240.606 173.132 241.899 174.918 243.372 176.71C244.93 178.449 246.26 179.917 247.363 181.115C248.55 182.26 250.129 183.749 252.1 185.583C254.072 187.417 255.556 188.848 256.552 189.876C256.976 190.555 257.58 191.71 258.364 193.343C259.18 194.837 259.927 196.316 260.606 197.779C261.369 199.189 261.777 199.936 261.83 200.021C261.904 200.328 262.068 200.874 262.322 201.659C262.662 202.39 262.879 203.021 262.974 203.551C263.154 204.028 263.234 204.627 263.212 205.348C263.223 205.931 263.096 206.482 262.831 207.001ZM329.776 164.639C328.928 165.169 328.154 165.063 327.454 164.321C327.126 164.172 325.949 163.61 323.925 162.635C321.932 161.522 320.427 160.811 319.409 160.504C314.3 155.914 309.875 151.191 306.134 146.336C305.509 145.901 304.332 144.867 302.605 143.235C300.909 141.465 299.61 140.33 298.709 139.832C298.116 139.26 297.157 138.857 295.832 138.623C294.538 138.252 293.637 138.226 293.129 138.544C292.45 138.967 292.037 139.344 291.888 139.672C289.259 147.919 287.853 156.992 287.672 166.893C287.715 167.338 287.778 169.892 287.862 174.556C287.978 179.083 288.174 182.321 288.45 184.271C288.471 186.381 287.458 187.78 285.412 188.469L276.238 186.242L273.774 182.298C272.82 179.829 270.611 175.254 267.145 168.576C263.68 161.898 261.661 157.912 261.088 156.619C260.824 156.195 259.684 154.843 257.67 152.564C257.374 152.278 256.987 151.753 256.51 150.99C255.662 149.633 255.397 148.265 255.715 146.888C256.118 145.457 257.025 144.36 258.434 143.596C261.148 141.901 263.586 141.556 265.748 142.564C267.773 144.482 269.924 147.265 272.203 150.912C272.945 152.099 273.761 153.594 274.651 155.396C275.541 157.198 276.013 158.141 276.066 158.226C276.278 157.622 276.527 156.228 276.814 154.044C277.047 151.776 277.297 149.439 277.562 147.033C277.827 144.627 277.981 143.174 278.023 142.676C278.161 141.765 278.273 140.339 278.358 138.399C278.527 136.406 278.729 134.747 278.962 133.422C279.28 132.044 279.742 130.518 280.346 128.843C281.226 126.289 283.097 123.999 285.959 121.975C286.68 121.053 287.666 120.555 288.917 120.481C290.199 120.269 291.842 120.539 293.846 121.292C295.796 121.96 297.057 122.469 297.63 122.819C298.287 123.116 299.628 123.752 301.652 124.727C308.097 129.19 313.571 135.026 318.075 142.235L327.01 151.155C327.169 151.41 327.954 152.099 329.363 153.223C330.858 154.293 331.631 154.871 331.684 154.956C333.285 157.14 333.74 159.095 333.051 160.823C332.85 161.067 332.373 161.719 331.62 162.779C330.899 163.701 330.284 164.321 329.776 164.639ZM406.077 182.759C400.777 183.712 393.632 183.696 384.644 182.709C382.195 182.942 380.276 183.08 378.888 183.122C377.584 183.111 376.01 182.857 374.166 182.358C372.321 181.86 370.737 181.022 369.412 179.846C367.016 176.39 366.312 173.469 367.298 171.084C368.295 168.339 369.768 166.357 371.719 165.138C373.245 164.184 374.835 163.898 376.489 164.28C377.178 164.439 379.075 165.022 382.181 166.03C385.339 167.122 387.915 167.753 389.908 167.923C391.901 168.092 393.782 167.801 395.553 167.049C395.807 166.89 395.95 166.741 395.982 166.603C397.943 164.081 398.744 161.399 398.383 158.558C398.161 155.749 397.229 152.559 395.586 148.986C393.943 145.414 392.979 142.833 392.693 141.243C391.856 139.525 390.436 136.875 388.432 133.292C386.514 129.656 385.094 127.006 384.172 125.342C380.133 129.634 375.824 133.212 371.244 136.073C367.089 138.67 362.488 140.837 357.443 142.575C352.694 142.712 348.093 142.049 343.642 140.586C339.222 138.985 335.83 136.388 333.466 132.794C330.944 128.003 330.171 122.236 331.147 115.495C332.154 108.615 334.057 102.886 336.856 98.3075C338.351 93.7178 341.431 89.9657 346.095 87.0512C352.116 83.2887 357.825 82.6109 363.22 85.0176C363.485 85.4416 363.893 86.1889 364.444 87.2596C366.987 91.3302 367.793 93.657 366.86 94.2399C366.436 94.5049 365.673 94.5101 364.57 94.2556C363.182 94.2978 360.081 95.4688 355.268 97.7686C353.35 98.8496 351.77 100.662 350.53 103.206C349.289 105.75 348.468 108.209 348.065 110.583C347.609 112.873 347.147 115.814 346.68 119.408C346.627 120.266 346.553 120.902 346.458 121.316C346.299 122.005 346.293 122.656 346.442 123.271C346.59 123.886 346.908 124.395 347.395 124.798C347.883 125.201 348.344 125.561 348.779 125.879C349.298 126.144 349.929 126.399 350.671 126.643C351.444 126.749 352.065 126.892 352.531 127.072C353.029 127.114 353.692 127.231 354.518 127.422C355.292 127.528 355.817 127.613 356.092 127.677C359.273 127.104 362.389 125.865 365.442 123.957C368.156 122.261 370.647 120.115 372.916 117.518C375.216 114.783 376.875 111.683 377.893 108.217C378.911 104.751 378.657 101.608 377.131 98.7882C371.588 88.2195 370.227 81.2287 373.047 77.8158L373.428 77.5773C376.142 76.825 379.592 77.4401 383.779 79.4227L384.558 79.8203L384.351 79.7726C386.852 83.398 388.967 89.3289 390.694 97.5652C392.452 105.664 393.968 111.202 395.239 114.181C398.143 124.866 402.138 135.694 407.225 146.666C408.719 149.623 409.647 152.523 410.007 155.363C410.505 158.236 410.817 162.227 410.944 167.336C410.784 172.742 410.243 176.5 409.321 178.609C408.526 180.167 407.444 181.55 406.077 182.759Z" fill="white"/>
</g>
<defs>
<clipPath id="clip0_9610_993">
<rect width="500" height="373" fill="white"/>
</clipPath>
</defs>
</svg>
