<svg width="339" height="238" viewBox="0 0 339 238" fill="none" xmlns="http://www.w3.org/2000/svg">
<g clip-path="url(#clip0_9610_988)">
<path d="M42 236.924C17.25 236.924 1 222.674 1 200.924C1 183.674 14.75 169.674 36 165.924L74.5 158.924C78.75 158.174 82 154.924 82 150.924C82 135.174 71.25 123.924 56 123.924C40 123.924 28 135.424 27 152.924L5 150.424C7.5 124.424 28.25 105.924 55 105.924C82.5 105.924 102 125.174 102 151.924V208.924L102.5 233.924H86.5L83 214.924C75.25 228.424 60.25 236.924 42 236.924ZM23 199.924C23 210.424 32 217.424 46 217.424C67 217.424 82 202.924 82 182.924V174.174C79.75 174.674 77 175.424 74 175.924L41 181.924C30 183.924 23 190.924 23 199.924ZM131.07 108.924H151.07V233.924H131.07V108.924ZM141.07 92.9243C132.07 92.9243 125.57 86.1743 125.57 76.9243C125.57 67.6743 132.07 60.9243 141.07 60.9243C150.07 60.9243 156.57 67.6743 156.57 76.9243C156.57 86.1743 150.07 92.9243 141.07 92.9243Z" fill="#373737"/>
<path d="M151.567 81.555C150.454 82.6043 149.086 83.3408 147.464 83.7647C145.842 84.1885 143.574 84.4268 140.659 84.4796C137.744 84.5323 136.133 84.5957 135.825 84.6699C133.801 84.6379 132.031 83.9752 130.515 82.6819C129.031 81.2508 128.167 79.4911 127.924 77.4029C127.564 75.5054 127.839 73.6823 128.751 71.9334C129.663 70.1845 130.935 68.9179 132.567 68.1336C133.129 67.9005 133.511 67.662 133.712 67.4182C133.861 67.0897 134.226 66.9201 134.809 66.9095C135.392 66.899 135.795 66.8831 136.018 66.862C136.272 66.703 136.702 66.7295 137.306 66.9416C137.942 67.0158 138.397 67.0848 138.673 67.1484C138.896 67.1272 139.336 67.2651 139.993 67.5619C140.597 67.774 140.994 67.9383 141.185 68.0549C141.461 68.1186 141.901 68.2564 142.505 68.4685C143.109 68.6805 143.507 68.8449 143.697 68.9615C144.566 69.5976 147.344 70.4564 152.029 71.5381C152.961 71.8985 153.836 72.8261 154.652 74.3208C155.468 75.8155 155.706 77.1405 155.367 78.2959L151.567 81.555ZM188.831 138.926C186.806 140.78 184.622 141.437 182.28 140.897C179.248 139.253 177.277 137.891 176.365 136.81C175.56 135.898 173.928 133.852 171.469 130.672C168.957 127.407 166.365 124.015 163.695 120.495C160.971 116.891 159.354 114.776 158.846 114.151C157.245 111.967 155.735 109.55 154.315 106.9C154.209 103.9 155.826 101.77 159.165 100.508C160.585 100.328 162.695 101.251 165.493 103.276C166.606 105.057 167.899 106.843 169.372 108.634C170.93 110.373 172.26 111.841 173.363 113.039C174.55 114.184 176.129 115.673 178.1 117.507C180.072 119.341 181.556 120.772 182.552 121.801C182.976 122.479 183.58 123.635 184.364 125.267C185.18 126.762 185.927 128.241 186.606 129.703C187.369 131.113 187.777 131.861 187.83 131.945C187.904 132.253 188.068 132.799 188.322 133.583C188.662 134.315 188.879 134.945 188.974 135.475C189.154 135.952 189.234 136.551 189.212 137.272C189.223 137.855 189.096 138.406 188.831 138.926ZM255.776 96.5632C254.928 97.0931 254.154 96.987 253.454 96.2449C253.126 96.0965 251.949 95.5346 249.925 94.5592C247.932 93.446 246.427 92.7357 245.409 92.4282C240.3 87.8379 235.875 83.1152 232.134 78.2601C231.509 77.8254 230.332 76.7918 228.605 75.1593C226.909 73.3889 225.61 72.2546 224.709 71.7563C224.116 71.1838 223.157 70.781 221.832 70.5476C220.538 70.1765 219.637 70.1499 219.129 70.4679C218.45 70.8918 218.037 71.2681 217.888 71.5967C215.259 79.8432 213.853 88.9166 213.672 98.817C213.715 99.2622 213.778 101.817 213.862 106.481C213.978 111.007 214.174 114.245 214.45 116.196C214.471 118.305 213.458 119.704 211.412 120.393L202.238 118.166L199.774 114.223C198.82 111.753 196.611 107.179 193.145 100.5C189.68 93.8222 187.661 89.8364 187.088 88.5431C186.824 88.1191 185.684 86.7675 183.67 84.4883C183.374 84.2021 182.987 83.6774 182.51 82.9141C181.662 81.5572 181.397 80.1898 181.715 78.8118C182.118 77.3809 183.025 76.2839 184.434 75.5208C187.148 73.8251 189.586 73.4808 191.748 74.488C193.773 76.4068 195.924 79.1895 198.203 82.8361C198.945 84.0234 199.761 85.518 200.651 87.3201C201.541 89.1222 202.013 90.0656 202.066 90.1504C202.278 89.5463 202.527 88.1524 202.814 85.9688C203.047 83.7004 203.297 81.3632 203.562 78.957C203.827 76.5508 203.981 75.0986 204.023 74.6004C204.161 73.6889 204.273 72.2632 204.358 70.3234C204.527 68.3306 204.729 66.6717 204.962 65.3468C205.28 63.9688 205.742 62.4424 206.346 60.7677C207.226 58.2132 209.097 55.9238 211.959 53.8994C212.68 52.9773 213.666 52.4792 214.917 52.4051C216.199 52.1932 217.842 52.4637 219.846 53.2165C221.796 53.8845 223.057 54.3934 223.63 54.7432C224.287 55.0401 225.628 55.6762 227.652 56.6516C234.097 61.1148 239.571 66.9506 244.075 74.159L253.01 83.0797C253.169 83.3341 253.954 84.0232 255.363 85.1469C256.858 86.2177 257.631 86.7955 257.684 86.8803C259.285 89.064 259.74 91.0197 259.051 92.7475C258.85 92.9913 258.373 93.6431 257.62 94.703C256.899 95.6252 256.284 96.2452 255.776 96.5632ZM332.077 114.683C326.777 115.637 319.632 115.62 310.644 114.633C308.195 114.866 306.276 115.004 304.888 115.046C303.584 115.035 302.01 114.781 300.166 114.283C298.321 113.784 296.737 112.947 295.412 111.77C293.016 108.314 292.312 105.394 293.298 103.009C294.295 100.263 295.768 98.2814 297.719 97.0626C299.245 96.1088 300.835 95.8227 302.489 96.2045C303.178 96.3635 305.075 96.9467 308.181 97.954C311.339 99.0461 313.915 99.677 315.908 99.8468C317.901 100.017 319.782 99.7253 321.553 98.9729C321.807 98.8139 321.95 98.6655 321.982 98.5277C323.943 96.0051 324.744 93.3234 324.383 90.4825C324.161 87.6735 323.229 84.4828 321.586 80.9105C319.943 77.3381 318.979 74.757 318.693 73.1669C317.856 71.4497 316.436 68.7995 314.432 65.2165C312.514 61.5806 311.094 58.9305 310.172 57.2662C306.133 61.5588 301.824 65.1359 297.244 67.9974C293.089 70.594 288.488 72.7613 283.443 74.4992C278.694 74.6366 274.093 73.9736 269.642 72.5104C265.222 70.9094 261.83 68.3121 259.466 64.7185C256.944 59.9271 256.171 54.1606 257.147 47.4191C258.154 40.5398 260.057 34.8107 262.856 30.2318C264.351 25.6421 267.431 21.89 272.095 18.9755C278.116 15.213 283.825 14.5352 289.22 16.9419C289.485 17.3659 289.893 18.1132 290.444 19.1839C292.987 23.2545 293.793 25.5813 292.86 26.1642C292.436 26.4292 291.673 26.4344 290.57 26.1799C289.182 26.2222 286.081 27.3932 281.268 29.6929C279.35 30.7739 277.77 32.5864 276.53 35.1303C275.289 37.6741 274.468 40.1332 274.065 42.5076C273.609 44.7972 273.147 47.7386 272.68 51.332C272.627 52.1906 272.553 52.8265 272.458 53.2399C272.299 53.9289 272.293 54.5808 272.442 55.1956C272.59 55.8104 272.908 56.3193 273.395 56.7221C273.883 57.125 274.344 57.4854 274.779 57.8034C275.298 58.0685 275.929 58.3229 276.671 58.5668C277.444 58.6729 278.065 58.816 278.531 58.9963C279.029 59.0387 279.692 59.1554 280.518 59.3463C281.292 59.4523 281.817 59.5372 282.092 59.6008C285.273 59.0287 288.389 57.7888 291.442 55.8811C294.156 54.1854 296.647 52.0391 298.916 49.4423C301.216 46.7077 302.875 43.6074 303.893 40.1413C304.911 36.6752 304.657 33.5323 303.131 30.7126C297.588 20.1439 296.227 13.153 299.047 9.74012L299.428 9.50166C302.142 8.74931 305.592 9.36444 309.779 11.347L310.558 11.7446L310.351 11.6969C312.852 15.3223 314.967 21.2532 316.694 29.4895C318.452 37.5881 319.968 43.1267 321.239 46.1054C324.143 56.7905 328.138 67.6187 333.225 78.5902C334.719 81.5477 335.647 84.4469 336.007 87.2877C336.505 90.1604 336.817 94.1513 336.944 99.2605C336.784 104.666 336.243 108.424 335.321 110.533C334.526 112.092 333.444 113.475 332.077 114.683Z" fill="#373737"/>
</g>
<defs>
<clipPath id="clip0_9610_988">
<rect width="339" height="238" fill="white"/>
</clipPath>
</defs>
</svg>
