<svg width="500" height="500" viewBox="0 0 500 500" fill="none" xmlns="http://www.w3.org/2000/svg">
<path d="M116 432C91.25 432 75 417.75 75 396C75 378.75 88.75 364.75 110 361L148.5 354C152.75 353.25 156 350 156 346C156 330.25 145.25 319 130 319C114 319 102 330.5 101 348L79 345.5C81.5 319.5 102.25 301 129 301C156.5 301 176 320.25 176 347V404L176.5 429H160.5L157 410C149.25 423.5 134.25 432 116 432ZM97 395C97 405.5 106 412.5 120 412.5C141 412.5 156 398 156 378V369.25C153.75 369.75 151 370.5 148 371L115 377C104 379 97 386 97 395ZM205.07 304H225.07V429H205.07V304ZM215.07 288C206.07 288 199.57 281.25 199.57 272C199.57 262.75 206.07 256 215.07 256C224.07 256 230.57 262.75 230.57 272C230.57 281.25 224.07 288 215.07 288Z" fill="#000000"/>
<path d="M225.567 276.631C224.454 277.68 223.086 278.417 221.464 278.84C219.842 279.264 217.574 279.503 214.659 279.555C211.744 279.608 210.133 279.671 209.825 279.746C207.801 279.714 206.031 279.051 204.515 277.758C203.031 276.326 202.167 274.567 201.924 272.479C201.564 270.581 201.839 268.758 202.751 267.009C203.663 265.26 204.935 263.994 206.567 263.209C207.129 262.976 207.511 262.738 207.712 262.494C207.861 262.165 208.226 261.996 208.809 261.985C209.392 261.975 209.795 261.959 210.018 261.938C210.272 261.779 210.702 261.805 211.306 262.017C211.942 262.092 212.397 262.16 212.673 262.224C212.896 262.203 213.336 262.341 213.993 262.638C214.597 262.85 214.994 263.014 215.185 263.131C215.461 263.194 215.901 263.332 216.505 263.544C217.109 263.756 217.507 263.921 217.697 264.037C218.566 264.673 221.344 265.532 226.029 266.614C226.961 266.974 227.836 267.902 228.652 269.396C229.468 270.891 229.706 272.216 229.367 273.372L225.567 276.631ZM262.831 334.001C260.806 335.856 258.622 336.513 256.28 335.972C253.248 334.329 251.277 332.967 250.365 331.885C249.56 330.974 247.928 328.928 245.469 325.748C242.957 322.483 240.365 319.09 237.695 315.571C234.971 311.967 233.354 309.852 232.846 309.226C231.245 307.043 229.735 304.626 228.315 301.975C228.209 298.976 229.826 296.845 233.165 295.584C234.585 295.404 236.695 296.326 239.493 298.351C240.606 300.132 241.899 301.918 243.372 303.71C244.93 305.449 246.26 306.917 247.363 308.115C248.55 309.26 250.129 310.749 252.1 312.583C254.072 314.417 255.556 315.848 256.552 316.876C256.976 317.555 257.58 318.71 258.364 320.343C259.18 321.837 259.927 323.316 260.606 324.779C261.369 326.189 261.777 326.936 261.83 327.021C261.904 327.328 262.068 327.874 262.322 328.659C262.662 329.39 262.879 330.021 262.974 330.551C263.154 331.028 263.234 331.627 263.212 332.348C263.223 332.931 263.096 333.482 262.831 334.001ZM329.776 291.639C328.928 292.169 328.154 292.063 327.454 291.321C327.126 291.172 325.949 290.61 323.925 289.635C321.932 288.522 320.427 287.811 319.409 287.504C314.3 282.914 309.875 278.191 306.134 273.336C305.509 272.901 304.332 271.867 302.605 270.235C300.909 268.465 299.61 267.33 298.709 266.832C298.116 266.26 297.157 265.857 295.832 265.623C294.538 265.252 293.637 265.226 293.129 265.544C292.45 265.967 292.037 266.344 291.888 266.672C289.259 274.919 287.853 283.992 287.672 293.893C287.715 294.338 287.778 296.892 287.862 301.556C287.978 306.083 288.174 309.321 288.45 311.271C288.471 313.381 287.458 314.78 285.412 315.469L276.238 313.242L273.774 309.298C272.82 306.829 270.611 302.254 267.145 295.576C263.68 288.898 261.661 284.912 261.088 283.619C260.824 283.195 259.684 281.843 257.67 279.564C257.374 279.278 256.987 278.753 256.51 277.99C255.662 276.633 255.397 275.265 255.715 273.888C256.118 272.457 257.025 271.36 258.434 270.596C261.148 268.901 263.586 268.556 265.748 269.564C267.773 271.482 269.924 274.265 272.203 277.912C272.945 279.099 273.761 280.594 274.651 282.396C275.541 284.198 276.013 285.141 276.066 285.226C276.278 284.622 276.527 283.228 276.814 281.044C277.047 278.776 277.297 276.439 277.562 274.033C277.827 271.627 277.981 270.174 278.023 269.676C278.161 268.765 278.273 267.339 278.358 265.399C278.527 263.406 278.729 261.747 278.962 260.422C279.28 259.044 279.742 257.518 280.346 255.843C281.226 253.289 283.097 250.999 285.959 248.975C286.68 248.053 287.666 247.555 288.917 247.481C290.199 247.269 291.842 247.539 293.846 248.292C295.796 248.96 297.057 249.469 297.63 249.819C298.287 250.116 299.628 250.752 301.652 251.727C308.097 256.19 313.571 262.026 318.075 269.235L327.01 278.155C327.169 278.41 327.954 279.099 329.363 280.223C330.858 281.293 331.631 281.871 331.684 281.956C333.285 284.14 333.74 286.095 333.051 287.823C332.85 288.067 332.373 288.719 331.62 289.779C330.899 290.701 330.284 291.321 329.776 291.639ZM406.077 309.759C400.777 310.712 393.632 310.696 384.644 309.709C382.195 309.942 380.276 310.08 378.888 310.122C377.584 310.111 376.01 309.857 374.166 309.358C372.321 308.86 370.737 308.022 369.412 306.846C367.016 303.39 366.312 300.469 367.298 298.084C368.295 295.339 369.768 293.357 371.719 292.138C373.245 291.184 374.835 290.898 376.489 291.28C377.178 291.439 379.075 292.022 382.181 293.03C385.339 294.122 387.915 294.753 389.908 294.923C391.901 295.092 393.782 294.801 395.553 294.049C395.807 293.89 395.95 293.741 395.982 293.603C397.943 291.081 398.744 288.399 398.383 285.558C398.161 282.749 397.229 279.559 395.586 275.986C393.943 272.414 392.979 269.833 392.693 268.243C391.856 266.525 390.436 263.875 388.432 260.292C386.514 256.656 385.094 254.006 384.172 252.342C380.133 256.634 375.824 260.212 371.244 263.073C367.089 265.67 362.488 267.837 357.443 269.575C352.694 269.712 348.093 269.049 343.642 267.586C339.222 265.985 335.83 263.388 333.466 259.794C330.944 255.003 330.171 249.236 331.147 242.495C332.154 235.615 334.057 229.886 336.856 225.307C338.351 220.718 341.431 216.966 346.095 214.051C352.116 210.289 357.825 209.611 363.22 212.018C363.485 212.442 363.893 213.189 364.444 214.26C366.987 218.33 367.793 220.657 366.86 221.24C366.436 221.505 365.673 221.51 364.57 221.256C363.182 221.298 360.081 222.469 355.268 224.769C353.35 225.85 351.77 227.662 350.53 230.206C349.289 232.75 348.468 235.209 348.065 237.583C347.609 239.873 347.147 242.814 346.68 246.408C346.627 247.266 346.553 247.902 346.458 248.316C346.299 249.005 346.293 249.656 346.442 250.271C346.59 250.886 346.908 251.395 347.395 251.798C347.883 252.201 348.344 252.561 348.779 252.879C349.298 253.144 349.929 253.399 350.671 253.643C351.444 253.749 352.065 253.892 352.531 254.072C353.029 254.114 353.692 254.231 354.518 254.422C355.292 254.528 355.817 254.613 356.092 254.677C359.273 254.104 362.389 252.865 365.442 250.957C368.156 249.261 370.647 247.115 372.916 244.518C375.216 241.783 376.875 238.683 377.893 235.217C378.911 231.751 378.657 228.608 377.131 225.788C371.588 215.22 370.227 208.229 373.047 204.816L373.428 204.577C376.142 203.825 379.592 204.44 383.779 206.423L384.558 206.82L384.351 206.773C386.852 210.398 388.967 216.329 390.694 224.565C392.452 232.664 393.968 238.202 395.239 241.181C398.143 251.866 402.138 262.694 407.225 273.666C408.719 276.623 409.647 279.523 410.007 282.363C410.505 285.236 410.817 289.227 410.944 294.336C410.784 299.742 410.243 303.5 409.321 305.609C408.526 307.167 407.444 308.55 406.077 309.759Z" fill="#000000"/>
</svg>
